<mxfile host="app.diagrams.net" agent="Mozilla/5.0 (Macintosh; Intel Mac OS X 10_15_7) AppleWebKit/605.1.15 (KHTML, like Gecko) Version/18.0.1 Safari/605.1.15" version="24.8.4">
  <diagram name="Page-1" id="13e1069c-82ec-6db2-03f1-153e76fe0fe0">
    <mxGraphModel dx="2565" dy="880" grid="1" gridSize="10" guides="1" tooltips="1" connect="1" arrows="1" fold="1" page="1" pageScale="1" pageWidth="1100" pageHeight="850" background="none" math="0" shadow="0">
      <root>
        <mxCell id="0" />
        <mxCell id="1" parent="0" />
        <mxCell id="qZDjLsgcLk7GfbXQVHLW-34" value="set lastSensorValue" style="shape=umlFrame;whiteSpace=wrap;html=1;pointerEvents=0;width=60;height=30;" vertex="1" parent="1">
          <mxGeometry x="440" y="1240" width="1390" height="820" as="geometry" />
        </mxCell>
        <mxCell id="qZDjLsgcLk7GfbXQVHLW-36" style="edgeStyle=orthogonalEdgeStyle;rounded=0;orthogonalLoop=1;jettySize=auto;html=1;dashed=1;endArrow=none;endFill=0;" edge="1" parent="1" source="qZDjLsgcLk7GfbXQVHLW-39">
          <mxGeometry relative="1" as="geometry">
            <mxPoint x="530" y="1960" as="targetPoint" />
          </mxGeometry>
        </mxCell>
        <mxCell id="qZDjLsgcLk7GfbXQVHLW-35" value=":EventLoop" style="rounded=1;whiteSpace=wrap;html=1;" vertex="1" parent="1">
          <mxGeometry x="470" y="1300" width="120" height="60" as="geometry" />
        </mxCell>
        <mxCell id="qZDjLsgcLk7GfbXQVHLW-38" style="edgeStyle=orthogonalEdgeStyle;rounded=0;orthogonalLoop=1;jettySize=auto;html=1;endArrow=none;endFill=0;dashed=1;" edge="1" parent="1" source="qZDjLsgcLk7GfbXQVHLW-41">
          <mxGeometry relative="1" as="geometry">
            <mxPoint x="765" y="1970" as="targetPoint" />
          </mxGeometry>
        </mxCell>
        <mxCell id="qZDjLsgcLk7GfbXQVHLW-37" value=":AbstractSensorReader" style="rounded=1;whiteSpace=wrap;html=1;" vertex="1" parent="1">
          <mxGeometry x="690" y="1300" width="150" height="60" as="geometry" />
        </mxCell>
        <mxCell id="qZDjLsgcLk7GfbXQVHLW-40" value="" style="edgeStyle=orthogonalEdgeStyle;rounded=0;orthogonalLoop=1;jettySize=auto;html=1;dashed=1;endArrow=none;endFill=0;" edge="1" parent="1" source="qZDjLsgcLk7GfbXQVHLW-35" target="qZDjLsgcLk7GfbXQVHLW-39">
          <mxGeometry relative="1" as="geometry">
            <mxPoint x="530" y="1960" as="targetPoint" />
            <mxPoint x="530" y="1360" as="sourcePoint" />
          </mxGeometry>
        </mxCell>
        <mxCell id="qZDjLsgcLk7GfbXQVHLW-39" value="" style="html=1;points=[];perimeter=orthogonalPerimeter;rounded=0;shadow=0;comic=0;labelBackgroundColor=none;strokeWidth=1;fontFamily=Verdana;fontSize=12;align=center;" vertex="1" parent="1">
          <mxGeometry x="525" y="1380" width="10" height="560" as="geometry" />
        </mxCell>
        <mxCell id="qZDjLsgcLk7GfbXQVHLW-42" value="" style="edgeStyle=orthogonalEdgeStyle;rounded=0;orthogonalLoop=1;jettySize=auto;html=1;endArrow=none;endFill=0;dashed=1;" edge="1" parent="1" source="qZDjLsgcLk7GfbXQVHLW-37" target="qZDjLsgcLk7GfbXQVHLW-41">
          <mxGeometry relative="1" as="geometry">
            <mxPoint x="765" y="1970" as="targetPoint" />
            <mxPoint x="765" y="1360" as="sourcePoint" />
          </mxGeometry>
        </mxCell>
        <mxCell id="qZDjLsgcLk7GfbXQVHLW-41" value="" style="html=1;points=[];perimeter=orthogonalPerimeter;rounded=0;shadow=0;comic=0;labelBackgroundColor=none;strokeWidth=1;fontFamily=Verdana;fontSize=12;align=center;" vertex="1" parent="1">
          <mxGeometry x="760" y="1420" width="10" height="520" as="geometry" />
        </mxCell>
        <mxCell id="qZDjLsgcLk7GfbXQVHLW-43" value="checkValue()" style="text;html=1;align=center;verticalAlign=middle;whiteSpace=wrap;rounded=0;" vertex="1" parent="1">
          <mxGeometry x="605" y="1420" width="95" height="30" as="geometry" />
        </mxCell>
        <mxCell id="qZDjLsgcLk7GfbXQVHLW-45" style="edgeStyle=orthogonalEdgeStyle;rounded=0;orthogonalLoop=1;jettySize=auto;html=1;dashed=1;endArrow=none;endFill=0;" edge="1" parent="1" source="qZDjLsgcLk7GfbXQVHLW-46">
          <mxGeometry relative="1" as="geometry">
            <mxPoint x="1010" y="1970" as="targetPoint" />
          </mxGeometry>
        </mxCell>
        <mxCell id="qZDjLsgcLk7GfbXQVHLW-44" value=":EventManager" style="rounded=1;whiteSpace=wrap;html=1;" vertex="1" parent="1">
          <mxGeometry x="950" y="1300" width="120" height="60" as="geometry" />
        </mxCell>
        <mxCell id="qZDjLsgcLk7GfbXQVHLW-47" value="" style="edgeStyle=orthogonalEdgeStyle;rounded=0;orthogonalLoop=1;jettySize=auto;html=1;dashed=1;endArrow=none;endFill=0;" edge="1" parent="1" source="qZDjLsgcLk7GfbXQVHLW-44" target="qZDjLsgcLk7GfbXQVHLW-46">
          <mxGeometry relative="1" as="geometry">
            <mxPoint x="1010" y="1970" as="targetPoint" />
            <mxPoint x="1010" y="1360" as="sourcePoint" />
          </mxGeometry>
        </mxCell>
        <mxCell id="qZDjLsgcLk7GfbXQVHLW-46" value="" style="html=1;points=[];perimeter=orthogonalPerimeter;rounded=0;shadow=0;comic=0;labelBackgroundColor=none;strokeWidth=1;fontFamily=Verdana;fontSize=12;align=center;" vertex="1" parent="1">
          <mxGeometry x="1005" y="1420" width="10" height="540" as="geometry" />
        </mxCell>
        <mxCell id="qZDjLsgcLk7GfbXQVHLW-48" value="dispatch(new SensorEvent)" style="text;html=1;align=center;verticalAlign=middle;whiteSpace=wrap;rounded=0;" vertex="1" parent="1">
          <mxGeometry x="810" y="1450" width="160" height="30" as="geometry" />
        </mxCell>
        <mxCell id="qZDjLsgcLk7GfbXQVHLW-53" style="edgeStyle=orthogonalEdgeStyle;rounded=0;orthogonalLoop=1;jettySize=auto;html=1;endArrow=none;endFill=0;dashed=1;" edge="1" parent="1" source="qZDjLsgcLk7GfbXQVHLW-56">
          <mxGeometry relative="1" as="geometry">
            <mxPoint x="1230" y="1980" as="targetPoint" />
          </mxGeometry>
        </mxCell>
        <mxCell id="qZDjLsgcLk7GfbXQVHLW-49" value=":RoboController" style="rounded=1;whiteSpace=wrap;html=1;" vertex="1" parent="1">
          <mxGeometry x="1170" y="1300" width="120" height="60" as="geometry" />
        </mxCell>
        <mxCell id="qZDjLsgcLk7GfbXQVHLW-50" value="onEvent(event)" style="text;html=1;align=center;verticalAlign=middle;whiteSpace=wrap;rounded=0;" vertex="1" parent="1">
          <mxGeometry x="1050" y="1480" width="90" height="30" as="geometry" />
        </mxCell>
        <mxCell id="qZDjLsgcLk7GfbXQVHLW-54" style="edgeStyle=orthogonalEdgeStyle;rounded=0;orthogonalLoop=1;jettySize=auto;html=1;dashed=1;endArrow=none;endFill=0;" edge="1" parent="1" source="qZDjLsgcLk7GfbXQVHLW-58">
          <mxGeometry relative="1" as="geometry">
            <mxPoint x="1580" y="1980" as="targetPoint" />
          </mxGeometry>
        </mxCell>
        <mxCell id="qZDjLsgcLk7GfbXQVHLW-51" value=":RoboContext" style="rounded=1;whiteSpace=wrap;html=1;" vertex="1" parent="1">
          <mxGeometry x="1520" y="1300" width="120" height="60" as="geometry" />
        </mxCell>
        <mxCell id="qZDjLsgcLk7GfbXQVHLW-52" value="updateFromSensorEvent(event)" style="text;html=1;align=center;verticalAlign=middle;whiteSpace=wrap;rounded=0;" vertex="1" parent="1">
          <mxGeometry x="1300" y="1500" width="180" height="30" as="geometry" />
        </mxCell>
        <mxCell id="qZDjLsgcLk7GfbXQVHLW-55" value="" style="endArrow=classic;html=1;rounded=0;exitX=1;exitY=0.173;exitDx=0;exitDy=0;exitPerimeter=0;entryX=0.1;entryY=0.161;entryDx=0;entryDy=0;entryPerimeter=0;" edge="1" parent="1">
          <mxGeometry width="50" height="50" relative="1" as="geometry">
            <mxPoint x="536" y="1444.44" as="sourcePoint" />
            <mxPoint x="760" y="1449.9999999999998" as="targetPoint" />
          </mxGeometry>
        </mxCell>
        <mxCell id="qZDjLsgcLk7GfbXQVHLW-57" value="" style="edgeStyle=orthogonalEdgeStyle;rounded=0;orthogonalLoop=1;jettySize=auto;html=1;endArrow=none;endFill=0;dashed=1;" edge="1" parent="1" source="qZDjLsgcLk7GfbXQVHLW-49" target="qZDjLsgcLk7GfbXQVHLW-56">
          <mxGeometry relative="1" as="geometry">
            <mxPoint x="1230" y="1980" as="targetPoint" />
            <mxPoint x="1230" y="1360" as="sourcePoint" />
          </mxGeometry>
        </mxCell>
        <mxCell id="qZDjLsgcLk7GfbXQVHLW-56" value="" style="html=1;points=[];perimeter=orthogonalPerimeter;rounded=0;shadow=0;comic=0;labelBackgroundColor=none;strokeWidth=1;fontFamily=Verdana;fontSize=12;align=center;" vertex="1" parent="1">
          <mxGeometry x="1225" y="1420" width="10" height="540" as="geometry" />
        </mxCell>
        <mxCell id="qZDjLsgcLk7GfbXQVHLW-59" value="" style="edgeStyle=orthogonalEdgeStyle;rounded=0;orthogonalLoop=1;jettySize=auto;html=1;dashed=1;endArrow=none;endFill=0;" edge="1" parent="1" source="qZDjLsgcLk7GfbXQVHLW-51" target="qZDjLsgcLk7GfbXQVHLW-58">
          <mxGeometry relative="1" as="geometry">
            <mxPoint x="1580" y="1980" as="targetPoint" />
            <mxPoint x="1580" y="1360" as="sourcePoint" />
          </mxGeometry>
        </mxCell>
        <mxCell id="qZDjLsgcLk7GfbXQVHLW-58" value="" style="html=1;points=[];perimeter=orthogonalPerimeter;rounded=0;shadow=0;comic=0;labelBackgroundColor=none;strokeWidth=1;fontFamily=Verdana;fontSize=12;align=center;" vertex="1" parent="1">
          <mxGeometry x="1575" y="1420" width="10" height="540" as="geometry" />
        </mxCell>
        <mxCell id="qZDjLsgcLk7GfbXQVHLW-60" value="" style="endArrow=classic;html=1;rounded=0;entryX=0.3;entryY=0.111;entryDx=0;entryDy=0;entryPerimeter=0;" edge="1" parent="1">
          <mxGeometry width="50" height="50" relative="1" as="geometry">
            <mxPoint x="770" y="1480" as="sourcePoint" />
            <mxPoint x="1005" y="1479.8600000000001" as="targetPoint" />
          </mxGeometry>
        </mxCell>
        <mxCell id="qZDjLsgcLk7GfbXQVHLW-61" value="" style="endArrow=classic;html=1;rounded=0;exitX=0.833;exitY=0.167;exitDx=0;exitDy=0;exitPerimeter=0;entryX=0.056;entryY=0.166;entryDx=0;entryDy=0;entryPerimeter=0;" edge="1" parent="1" source="qZDjLsgcLk7GfbXQVHLW-46" target="qZDjLsgcLk7GfbXQVHLW-56">
          <mxGeometry width="50" height="50" relative="1" as="geometry">
            <mxPoint x="1090" y="1560" as="sourcePoint" />
            <mxPoint x="1140" y="1510" as="targetPoint" />
          </mxGeometry>
        </mxCell>
        <mxCell id="qZDjLsgcLk7GfbXQVHLW-62" value="" style="endArrow=classic;html=1;rounded=0;exitX=0.917;exitY=0.206;exitDx=0;exitDy=0;exitPerimeter=0;entryX=-0.083;entryY=0.203;entryDx=0;entryDy=0;entryPerimeter=0;" edge="1" parent="1" source="qZDjLsgcLk7GfbXQVHLW-56" target="qZDjLsgcLk7GfbXQVHLW-58">
          <mxGeometry width="50" height="50" relative="1" as="geometry">
            <mxPoint x="1370" y="1580" as="sourcePoint" />
            <mxPoint x="1420" y="1530" as="targetPoint" />
          </mxGeometry>
        </mxCell>
        <mxCell id="qZDjLsgcLk7GfbXQVHLW-63" value="" style="html=1;points=[];perimeter=orthogonalPerimeter;rounded=0;shadow=0;comic=0;labelBackgroundColor=none;strokeWidth=1;fontFamily=Verdana;fontSize=12;align=center;" vertex="1" parent="1">
          <mxGeometry x="1580" y="1530" width="10" height="100" as="geometry" />
        </mxCell>
        <mxCell id="qZDjLsgcLk7GfbXQVHLW-64" value="" style="endArrow=classic;html=1;rounded=0;exitX=1.167;exitY=0.097;exitDx=0;exitDy=0;exitPerimeter=0;entryX=0.917;entryY=0.597;entryDx=0;entryDy=0;entryPerimeter=0;" edge="1" parent="1" source="qZDjLsgcLk7GfbXQVHLW-63" target="qZDjLsgcLk7GfbXQVHLW-63">
          <mxGeometry width="50" height="50" relative="1" as="geometry">
            <mxPoint x="1640" y="1570" as="sourcePoint" />
            <mxPoint x="1690" y="1520" as="targetPoint" />
            <Array as="points">
              <mxPoint x="1680" y="1540" />
              <mxPoint x="1680" y="1590" />
            </Array>
          </mxGeometry>
        </mxCell>
        <mxCell id="qZDjLsgcLk7GfbXQVHLW-65" value="lastLightSensorValue = event.getValue();" style="text;html=1;align=center;verticalAlign=middle;whiteSpace=wrap;rounded=0;" vertex="1" parent="1">
          <mxGeometry x="1585" y="1600" width="250" height="30" as="geometry" />
        </mxCell>
      </root>
    </mxGraphModel>
  </diagram>
</mxfile>
